<svg xmlns="http://www.w3.org/2000/svg" viewBox="0 0 1055.54 1055.54"><defs><style>.cls-1{fill:#2f9898;}.cls-2{fill:#a8a8a8;}.cls-3{fill:#ec6323;}</style></defs><g id="Shutter_Logo" data-name="Shutter Logo"><path class="cls-1" d="M417.19,670.67l-255-442a527.3,527.3,0,0,0-112.73,442Z" transform="translate(-39.16 -39.16)"/><path class="cls-2" d="M402.31,489,657.64,47a528.71,528.71,0,0,0-90.71-7.83c-133.36,0-255.31,49.75-348.32,131.63Z" transform="translate(-39.16 -39.16)"/><path class="cls-1" d="M552.13,385.39h510.39C1007.64,236,887.06,118.15,736,66.93Z" transform="translate(-39.16 -39.16)"/><path class="cls-1" d="M731.55,644.89l-255.36,442a529.06,529.06,0,0,0,90.74,7.83c133.36,0,255.31-49.75,348.32-131.63Z" transform="translate(-39.16 -39.16)"/><path class="cls-2" d="M581.73,748.47H71.34c54.88,149.35,175.45,267.24,326.52,318.46Z" transform="translate(-39.16 -39.16)"/><path class="cls-2" d="M716.66,463.19l255,442a527.28,527.28,0,0,0,112.74-442Z" transform="translate(-39.16 -39.16)"/><g id="_485._Up" data-name="485. Up"><path class="cls-3" d="M523.13,722.88,730.41,585c9.23-6.14,9.23-16.08,0-22.23L523.13,424.87c-9.23-6.15-24.17-6.15-33.4,0L473.05,436c-9.24,6.15-9.24,16.09,0,22.23L646.91,573.87,473.05,689.55c-9.24,6.15-9.24,16.09,0,22.23l16.68,11.1C499,729,513.9,729,523.13,722.88Z" transform="translate(-39.16 -39.16)"/></g></g></svg>